<svg width="24" height="24" viewBox="0 0 24 24" fill="none" xmlns="http://www.w3.org/2000/svg">
<mask id="mask0_6513_25063" style="mask-type:alpha" maskUnits="userSpaceOnUse" x="0" y="0" width="24" height="24">
<rect width="24" height="24" fill="#D9D9D9"/>
</mask>
<g mask="url(#mask0_6513_25063)">
<path d="M5 21C4.16667 21 3.45833 20.7083 2.875 20.125C2.29167 19.5417 2 18.8333 2 18V11C2 10.1667 2.29167 9.45833 2.875 8.875C3.45833 8.29167 4.16667 8 5 8C5.45 8 5.86267 8.09167 6.238 8.275C6.61267 8.45833 6.94167 8.7 7.225 9H8V4H18V9H19C19.8333 9 20.5417 9.29167 21.125 9.875C21.7083 10.4583 22 11.1667 22 12V20H7.225C6.94167 20.3 6.61267 20.5417 6.238 20.725C5.86267 20.9083 5.45 21 5 21ZM5 19C5.28333 19 5.521 18.904 5.713 18.712C5.90433 18.5207 6 18.2833 6 18V11C6 10.7167 5.90433 10.479 5.713 10.287C5.521 10.0957 5.28333 10 5 10C4.71667 10 4.479 10.0957 4.287 10.287C4.09567 10.479 4 10.7167 4 11V18C4 18.2833 4.09567 18.5207 4.287 18.712C4.479 18.904 4.71667 19 5 19ZM10 9H16V6H10V9ZM8 18H20V12C20 11.7167 19.904 11.479 19.712 11.287C19.5207 11.0957 19.2833 11 19 11H8V18ZM15 14C15.2833 14 15.521 13.904 15.713 13.712C15.9043 13.5207 16 13.2833 16 13C16 12.7167 15.9043 12.479 15.713 12.287C15.521 12.0957 15.2833 12 15 12C14.7167 12 14.4793 12.0957 14.288 12.287C14.096 12.479 14 12.7167 14 13C14 13.2833 14.096 13.5207 14.288 13.712C14.4793 13.904 14.7167 14 15 14ZM18 14C18.2833 14 18.5207 13.904 18.712 13.712C18.904 13.5207 19 13.2833 19 13C19 12.7167 18.904 12.479 18.712 12.287C18.5207 12.0957 18.2833 12 18 12C17.7167 12 17.4793 12.0957 17.288 12.287C17.096 12.479 17 12.7167 17 13C17 13.2833 17.096 13.5207 17.288 13.712C17.4793 13.904 17.7167 14 18 14ZM15 17C15.2833 17 15.521 16.904 15.713 16.712C15.9043 16.5207 16 16.2833 16 16C16 15.7167 15.9043 15.479 15.713 15.287C15.521 15.0957 15.2833 15 15 15C14.7167 15 14.4793 15.0957 14.288 15.287C14.096 15.479 14 15.7167 14 16C14 16.2833 14.096 16.5207 14.288 16.712C14.4793 16.904 14.7167 17 15 17ZM18 17C18.2833 17 18.5207 16.904 18.712 16.712C18.904 16.5207 19 16.2833 19 16C19 15.7167 18.904 15.479 18.712 15.287C18.5207 15.0957 18.2833 15 18 15C17.7167 15 17.4793 15.0957 17.288 15.287C17.096 15.479 17 15.7167 17 16C17 16.2833 17.096 16.5207 17.288 16.712C17.4793 16.904 17.7167 17 18 17ZM9 17H13V12H9V17Z" fill="#004494"/>
</g>
</svg>
