<svg width="64" height="64" viewBox="0 0 64 64" fill="none" xmlns="http://www.w3.org/2000/svg">
<mask id="mask0_6151_23707" style="mask-type:alpha" maskUnits="userSpaceOnUse" x="0" y="0" width="64" height="64">
<rect width="64" height="64" fill="#D9D9D9"/>
</mask>
<g mask="url(#mask0_6151_23707)">
<path d="M24.0007 33.333H26.6673V27.9997H29.334C30.0895 27.9997 30.7233 27.7437 31.2353 27.2317C31.7455 26.7215 32.0006 26.0886 32.0006 25.333V22.6663C32.0006 21.9108 31.7455 21.277 31.2353 20.765C30.7233 20.2548 30.0895 19.9997 29.334 19.9997H24.0007V33.333ZM26.6673 25.333V22.6663H29.334V25.333H26.6673ZM34.6673 33.333H40.0006C40.7562 33.333 41.39 33.077 41.902 32.565C42.4122 32.0548 42.6673 31.4219 42.6673 30.6663V22.6663C42.6673 21.9108 42.4122 21.277 41.902 20.765C41.39 20.2548 40.7562 19.9997 40.0006 19.9997H34.6673V33.333ZM37.334 30.6663V22.6663H40.0006V30.6663H37.334ZM45.334 33.333H48.0006V27.9997H50.6673V25.333H48.0006V22.6663H50.6673V19.9997H45.334V33.333ZM21.334 47.9997C19.8673 47.9997 18.6122 47.4779 17.5687 46.4343C16.5233 45.389 16.0007 44.133 16.0007 42.6663V10.6663C16.0007 9.19967 16.5233 7.94367 17.5687 6.89834C18.6122 5.85479 19.8673 5.33301 21.334 5.33301H53.334C54.8006 5.33301 56.0566 5.85479 57.102 6.89834C58.1455 7.94367 58.6673 9.19967 58.6673 10.6663V42.6663C58.6673 44.133 58.1455 45.389 57.102 46.4343C56.0566 47.4779 54.8006 47.9997 53.334 47.9997H21.334ZM21.334 42.6663H53.334V10.6663H21.334V42.6663ZM10.6673 58.6663C9.20065 58.6663 7.94554 58.1446 6.90198 57.101C5.85665 56.0557 5.33398 54.7997 5.33398 53.333V15.9997H10.6673V53.333H48.0006V58.6663H10.6673Z" fill="#004494"/>
</g>
</svg>
