<svg width="24" height="25" viewBox="0 0 24 25" fill="none" xmlns="http://www.w3.org/2000/svg">
<g clip-path="url(#clip0_6151_23541)">
<path d="M12 2.16606C15.2042 2.16606 15.5837 2.17831 16.849 2.23604C18.019 2.28944 18.6544 2.48488 19.0773 2.64922C19.6374 2.8669 20.0371 3.12694 20.457 3.54688C20.877 3.96678 21.137 4.36657 21.3547 4.92665C21.519 5.3495 21.7145 5.98489 21.7679 7.15488C21.8256 8.42028 21.8378 8.79978 21.8378 12.0039C21.8378 15.2081 21.8256 15.5876 21.7679 16.8529C21.7145 18.0229 21.519 18.6583 21.3547 19.0812C21.137 19.6413 20.877 20.041 20.457 20.4609C20.0371 20.8809 19.6373 21.1409 19.0773 21.3586C18.6544 21.5229 18.019 21.7184 16.849 21.7718C15.5839 21.8295 15.2044 21.8417 12 21.8417C8.79568 21.8417 8.41618 21.8295 7.15102 21.7718C5.98103 21.7184 5.34564 21.5229 4.92279 21.3586C4.36266 21.1409 3.96292 20.8809 3.54302 20.4609C3.12313 20.041 2.86305 19.6412 2.64536 19.0812C2.48102 18.6583 2.28553 18.0229 2.23218 16.8529C2.17445 15.5876 2.16221 15.208 2.16221 12.0039C2.16221 8.79973 2.17445 8.42023 2.23218 7.15488C2.28558 5.98489 2.48102 5.3495 2.64536 4.92665C2.86305 4.36652 3.12308 3.96678 3.54302 3.54688C3.96296 3.12699 4.36271 2.8669 4.92279 2.64922C5.34564 2.48488 5.98103 2.28939 7.15102 2.23604C8.41642 2.17831 8.79587 2.16606 12 2.16606ZM12.0001 0.00390625C8.74104 0.00390625 8.33239 0.0177201 7.05251 0.0761195C5.7752 0.134424 4.90293 0.337249 4.13964 0.633915C3.35053 0.940583 2.68132 1.3509 2.01421 2.01802C1.34709 2.68513 0.936772 3.35439 0.630104 4.14345C0.333343 4.90674 0.13047 5.77906 0.0722133 7.05632C0.0138139 8.33625 0 8.7449 0 12.0039C0 15.2629 0.0138139 15.6716 0.0722133 16.9514C0.130517 18.2288 0.333343 19.101 0.630008 19.8643C0.936677 20.6534 1.347 21.3226 2.01411 21.9897C2.68123 22.6569 3.35049 23.0672 4.13954 23.3739C4.90288 23.6705 5.77516 23.8733 7.05242 23.9316C8.33234 23.99 8.741 24.0039 12 24.0039C15.259 24.0039 15.6677 23.99 16.9475 23.9316C18.2248 23.8733 19.0971 23.6705 19.8604 23.3739C20.6495 23.0672 21.3187 22.6569 21.9858 21.9897C22.653 21.3226 23.0633 20.6534 23.3699 19.8643C23.6666 19.101 23.8694 18.2287 23.9277 16.9514C23.9861 15.6715 24 15.2629 24 12.0039C24 8.7449 23.9861 8.3362 23.9277 7.05632C23.8694 5.77901 23.6666 4.90674 23.3699 4.14345C23.0633 3.35434 22.653 2.68513 21.9858 2.01802C21.3187 1.3509 20.6495 0.940583 19.8604 0.633915C19.0971 0.337249 18.2248 0.134424 16.9475 0.0761195C15.6676 0.0177201 15.2591 0.00390625 12.0001 0.00390625Z" fill="white"/>
<path d="M12 5.84175C8.59676 5.84175 5.83784 8.60062 5.83784 12.0039C5.83784 15.4072 8.59676 18.1661 12 18.1661C15.4033 18.1661 18.1622 15.4072 18.1622 12.0039C18.1622 8.60062 15.4033 5.84175 12 5.84175ZM12 16.0039C9.7909 16.0039 8 14.2131 8 12.0039C8 9.7948 9.79085 8.00391 12 8.00391C14.2092 8.00391 16 9.79476 16 12.0039C16 14.2131 14.2092 16.0039 12 16.0039Z" fill="white"/>
<path d="M18.4056 7.03827C19.2009 7.03827 19.8456 6.39357 19.8456 5.59829C19.8456 4.80301 19.2009 4.15831 18.4056 4.15831C17.6103 4.15831 16.9656 4.80301 16.9656 5.59829C16.9656 6.39357 17.6103 7.03827 18.4056 7.03827Z" fill="white"/>
</g>
<defs>
<clipPath id="clip0_6151_23541">
<rect width="24" height="24" fill="white" transform="translate(0 0.00390625)"/>
</clipPath>
</defs>
</svg>
