<svg width="24" height="25" viewBox="0 0 24 25" fill="none" xmlns="http://www.w3.org/2000/svg">
<path d="M24 4.30812C23.102 4.7069 22.1484 4.96821 21.1725 5.08326C22.2001 4.46803 22.9694 3.49984 23.337 2.36004C22.3698 2.93335 21.3129 3.33798 20.2101 3.55541C18.3459 1.57321 15.2268 1.47765 13.2436 3.34188C11.9644 4.54408 11.4223 6.33615 11.8191 8.04633C7.8596 7.8484 4.17111 5.97832 1.67118 2.90215C0.364656 5.15249 1.03157 8.03073 3.19512 9.47668C2.41121 9.45328 1.64485 9.2417 0.96039 8.86047V8.92287C0.96039 11.2668 2.61304 13.2851 4.91018 13.7492C4.18574 13.9471 3.42523 13.9764 2.68714 13.834C3.3326 15.8396 5.18026 17.2134 7.28726 17.2534C5.54296 18.6233 3.38915 19.3672 1.17197 19.3653C0.780012 19.3643 0.389031 19.3409 0 19.2941C2.25229 20.7391 4.87215 21.5054 7.54759 21.5015V21.5054C16.6045 21.5054 21.5576 14.0017 21.5576 7.49545C21.5576 7.28192 21.5576 7.07034 21.543 6.85876C22.5063 6.16163 23.3389 5.29874 24 4.30812Z" fill="white"/>
</svg>
