<svg width="24" height="25" viewBox="0 0 24 25" fill="none" xmlns="http://www.w3.org/2000/svg">
<path d="M23.4985 6.14432C23.2225 5.10495 22.4092 4.2865 21.3766 4.00872C19.505 3.50391 12 3.50391 12 3.50391C12 3.50391 4.49496 3.50391 2.62336 4.00872C1.59082 4.2865 0.777545 5.10495 0.501545 6.14432C0 8.02804 0 11.9585 0 11.9585C0 11.9585 0 15.8889 0.501545 17.7726C0.777545 18.812 1.59082 19.6304 2.62336 19.9082C4.49496 20.413 12 20.413 12 20.413C12 20.413 19.505 20.413 21.3766 19.9082C22.4092 19.6304 23.2225 18.8118 23.4985 17.7726C24 15.8887 24 11.9585 24 11.9585C24 11.9585 24 8.02804 23.4985 6.14432ZM9.54545 15.527V8.38995L15.8182 11.9586L9.54545 15.527Z" fill="white"/>
</svg>
