<svg width="153" height="40" viewBox="0 0 153 40" fill="none" xmlns="http://www.w3.org/2000/svg">
<g clip-path="url(#clip0_6594_7591)">
<path d="M20.3503 0L19.6939 2.00396H17.5645L19.2856 3.2396L18.6292 5.24356L20.3503 4L22.0715 5.24356L21.4151 3.2396L23.1362 2.00396H21.0068L20.3503 0Z" fill="#FFD617"/>
<path d="M21.0068 36.7603L20.3503 34.7563L19.6939 36.7603H17.5645L19.2856 37.996L18.6292 39.9999L20.3503 38.7563L22.0715 39.9999L21.4151 37.996L23.1362 36.7603H21.0068Z" fill="#FFD617"/>
<path d="M2.78589 21.3784L4.50706 22.622L3.85062 20.618L5.57179 19.3824H3.44234L2.78589 17.3784L2.12945 19.3824H0L1.72117 20.618L1.06472 22.622L2.78589 21.3784Z" fill="#FFD617"/>
<path d="M11.5671 2.32861L10.9107 4.33257H8.78125L10.5024 5.56822L9.84597 7.56426L11.5671 6.32861L13.2883 7.56426L12.6319 5.56822L14.353 4.33257H12.2236L11.5671 2.32861Z" fill="#FFD617"/>
<path d="M5.13941 8.68896L4.48296 10.6929H2.35352L4.07469 11.9286L3.41824 13.9325L5.13941 12.689L6.86058 13.9325L6.20413 11.9286L7.9173 10.6929H5.79586L5.13941 8.68896Z" fill="#FFD617"/>
<path d="M5.79586 28.0713L5.13941 26.0674L4.48296 28.0713H2.35352L4.07469 29.307L3.41824 31.3109L5.13941 30.0674L6.86058 31.3109L6.20413 29.307L7.9173 28.0713H5.79586Z" fill="#FFD617"/>
<path d="M12.2236 34.4317L11.5671 32.4277L10.9107 34.4317H8.78125L10.5024 35.6673L9.84597 37.6713L11.5671 36.4277L13.2883 37.6713L12.6319 35.6673L14.353 34.4317H12.2236Z" fill="#FFD617"/>
<path d="M40.6987 19.3824H38.5693L37.9128 17.3784L37.2564 19.3824H35.127L36.8481 20.618L36.1917 22.622L37.9128 21.3784L39.634 22.622L38.9776 20.618L40.6987 19.3824Z" fill="#FFD617"/>
<path d="M29.1316 2.32861L28.4752 4.33257H26.3457L28.0669 5.56822L27.4104 7.56426L29.1316 6.32861L30.8528 7.56426L30.1963 5.56822L31.9175 4.33257H29.788L29.1316 2.32861Z" fill="#FFD617"/>
<path d="M34.4946 11.9286L33.8382 13.9325L35.5593 12.689L37.2805 13.9325L36.6241 11.9286L38.3452 10.6929H36.2158L35.5593 8.68896L34.9029 10.6929H32.7734L34.4946 11.9286Z" fill="#FFD617"/>
<path d="M36.2158 28.0713L35.5593 26.0674L34.9029 28.0713H32.7734L34.4946 29.307L33.8382 31.3109L35.5593 30.0674L37.2805 31.3109L36.6241 29.307L38.3452 28.0713H36.2158Z" fill="#FFD617"/>
<path d="M29.788 34.4317L29.1316 32.4277L28.4752 34.4317H26.3457L28.0669 35.6673L27.4104 37.6713L29.1316 36.4277L30.8528 37.6713L30.1963 35.6673L31.9175 34.4317H29.788Z" fill="#FFD617"/>
<path d="M24.1765 23.8892C25.0571 28.1665 27.3226 31.1843 30.9571 32.9189C32.6542 33.7269 34.6236 34.1546 36.8651 34.21C38.8745 34.2575 40.9158 34.0595 43.0053 33.6239C43.2614 33.5684 43.5096 33.7189 43.5656 33.9645C43.5736 34.0041 43.5817 34.0437 43.5736 34.0912L43.2454 38.5823C43.2294 38.7645 43.0933 38.915 42.9012 38.9546C39.651 39.5962 36.4168 39.7387 33.2146 39.3744C29.6122 38.9625 26.6021 37.9724 24.1925 36.3962C20.59 34.0437 18.1644 30.511 16.9155 25.8061C16.3471 23.6833 16.115 22.012 16.195 20.8001C16.5473 15.7308 18.4286 11.2239 21.8229 7.3031C22.8956 6.05953 24.0804 5.02191 25.3693 4.1823C26.9864 3.12884 28.3553 2.36844 29.4761 1.90112C30.4847 1.48924 31.5495 1.25953 32.6622 1.19617C33.0945 1.1724 34.1673 1.16448 35.8884 1.1724C37.7377 1.18032 39.5549 1.45755 41.3321 2.01201C41.5243 2.07537 41.6523 2.24171 41.6283 2.40805L40.9559 6.70904C40.9238 6.88329 40.7717 7.01795 40.5716 7.04171C39.9792 7.10508 39.0906 7.08924 37.8978 7.00211C29.7643 6.37636 25.0651 9.92488 23.8002 17.6477C23.7682 17.8219 23.8883 17.9803 24.0644 18.012C24.0804 18.012 24.1044 18.012 24.1204 18.012L31.5335 17.9645C31.8377 17.9645 32.0858 18.21 32.0858 18.5189V22.9229C32.0858 23.2635 31.8056 23.5328 31.4614 23.5407L24.4166 23.5645C24.2805 23.5645 24.1685 23.6833 24.1685 23.8259C24.1685 23.8417 24.1685 23.8576 24.1685 23.8734L24.1765 23.8892Z" fill="#004494"/>
<path d="M69.6002 33.2593C71.6416 33.1484 73.6669 32.8157 75.6603 32.2692C75.8444 32.2137 76.0366 32.3167 76.0846 32.491C76.1006 32.5306 76.1006 32.5781 76.1006 32.6177L75.6683 37.9088C75.6363 38.3127 75.3321 38.6533 74.9158 38.7405C70.2886 39.7464 65.8696 39.8414 61.6588 39.0098C59.3532 38.5583 57.3599 37.79 55.6867 36.7048C53.8215 35.4929 52.2684 33.988 51.0115 32.182C49.6666 30.2494 48.8501 27.786 48.5699 24.7999C48.3057 22.0355 48.3457 19.3979 48.674 16.8791C49.3304 11.881 51.4759 7.93649 55.1183 5.0454C57.616 3.06521 60.6341 1.85333 64.1645 1.40976C67.4707 0.989959 70.809 1.20382 74.1953 2.05135C74.4195 2.10679 74.5635 2.33649 74.5235 2.58204L73.707 7.77808C73.6349 8.21372 73.2427 8.51471 72.8264 8.45927C72.7944 8.45927 72.7623 8.44342 72.7303 8.4355C70.3767 7.73847 68.0551 7.47709 65.7656 7.65927C63.42 7.84144 61.4987 8.52263 60.0017 9.71867C58.3445 11.0335 57.1677 12.8236 56.4793 15.0969C55.6307 17.8929 55.4786 20.6177 56.0149 23.2711C56.9676 27.9682 59.4893 31.0494 63.5801 32.5226C65.3013 33.1405 67.3026 33.386 69.6002 33.2593Z" fill="#004494"/>
<path d="M101.989 20.8872C103.197 21.4338 104.286 22.2338 105.247 23.2872C105.911 24.008 106.616 25.1169 107.376 26.614C109.266 30.3526 110.979 34.2813 112.508 38.3922C112.572 38.5744 112.476 38.7724 112.3 38.8357C112.26 38.8516 112.22 38.8595 112.172 38.8595H104.791C104.382 38.8595 104.014 38.5981 103.886 38.21C102.901 35.1605 101.756 32.1981 100.444 29.3229C99.499 27.2555 98.3942 25.8377 97.1294 25.0694C95.168 23.8734 92.9025 23.5724 90.3327 24.1664C90.1006 24.214 89.9405 24.4199 89.9485 24.6575L90.1326 38.313C90.1326 38.5427 89.9645 38.7328 89.7483 38.7407C89.7483 38.7407 89.7483 38.7407 89.7403 38.7407L82.8156 38.8278C82.4954 38.8278 82.2392 38.5744 82.2312 38.2417C82.2312 38.2338 82.2312 38.2258 82.2312 38.2179C82.6395 26.107 82.6075 14.1625 82.1512 2.39217C82.1352 2.09118 82.3673 1.84564 82.6715 1.8298C82.6715 1.8298 82.6795 1.8298 82.6875 1.8298C87.3627 1.75851 92.0379 1.70306 96.7051 1.66346C99.555 1.6397 102.141 2.10702 104.462 3.06544C105.927 3.67534 107.08 4.60999 107.921 5.88524C108.641 6.98623 109.041 8.34069 109.122 9.95653C109.346 14.7486 106.976 18.1545 102.005 20.1744C101.444 20.4041 101.436 20.6417 101.989 20.8872ZM99.3709 8.11891C96.3848 6.8595 93.3108 6.59019 90.1406 7.32683C89.9084 7.38227 89.7563 7.58821 89.7563 7.82584L89.9164 18.0991C89.9245 18.5981 90.3407 18.9942 90.8451 18.9862C90.8531 18.9862 90.8611 18.9862 90.8691 18.9862C92.0299 18.9308 93.2787 18.8595 94.5996 18.7565C96.1927 18.6377 97.4015 18.408 98.2261 18.0516C101.004 16.8555 102.157 14.5427 101.676 11.113C101.476 9.68722 100.708 8.6892 99.3709 8.11891Z" fill="#004494"/>
<path d="M140.639 28.2137L128.382 28.1741C127.966 28.1741 127.598 28.4355 127.494 28.8157L124.98 38.3524C124.9 38.6533 124.644 38.8593 124.364 38.8593L116.895 38.8197C116.582 38.8197 116.326 38.5662 116.326 38.2494C116.326 38.1781 116.342 38.1068 116.366 38.0434L129.847 2.24939C129.927 2.02761 130.144 1.87711 130.376 1.86919L140.142 1.82959C140.463 1.82959 140.751 2.04345 140.839 2.36028C142.408 7.82563 144.201 13.2831 146.218 18.7326C148.564 25.085 150.814 31.5563 152.967 38.1464C153.063 38.4236 152.919 38.7167 152.655 38.8118C152.599 38.8276 152.543 38.8434 152.479 38.8355L144.289 38.7326C144.057 38.7326 143.857 38.5583 143.793 38.3207L141.335 28.7524C141.255 28.4355 140.967 28.2137 140.639 28.2137ZM129.319 22.186C129.255 22.392 129.351 22.6058 129.543 22.6771C129.575 22.693 129.615 22.693 129.655 22.693L138.869 22.8038C139.206 22.8038 139.478 22.5345 139.478 22.1781C139.478 22.0989 139.462 22.0276 139.438 21.9563C137.637 17.1959 136.084 12.3246 134.779 7.32662C134.739 7.16028 134.651 7.05731 134.515 7.01771C134.354 6.97018 134.162 7.12068 134.09 7.35038L129.319 22.186Z" fill="#004494"/>
</g>
<defs>
<clipPath id="clip0_6594_7591">
<rect width="153" height="40" fill="white"/>
</clipPath>
</defs>
</svg>
