<svg width="153" height="40" viewBox="0 0 153 40" fill="none" xmlns="http://www.w3.org/2000/svg">
<g clip-path="url(#clip0_6151_23506)">
<path d="M20.3503 0L19.6939 2.00396H17.5645L19.2856 3.2396L18.6292 5.24356L20.3503 4L22.0715 5.24356L21.4151 3.2396L23.1362 2.00396H21.0068L20.3503 0Z" fill="#FFCC00"/>
<path d="M21.0068 36.7608L20.3503 34.7568L19.6939 36.7608H17.5645L19.2856 37.9964L18.6292 40.0004L20.3503 38.7568L22.0715 40.0004L21.4151 37.9964L23.1362 36.7608H21.0068Z" fill="#FFCC00"/>
<path d="M2.78589 21.3779L4.50706 22.6215L3.85062 20.6175L5.57179 19.3819H3.44234L2.78589 17.3779L2.12945 19.3819H0L1.72117 20.6175L1.06472 22.6215L2.78589 21.3779Z" fill="#FFCC00"/>
<path d="M11.5671 2.3291L10.9107 4.33306H8.78125L10.5024 5.56871L9.84597 7.56475L11.5671 6.3291L13.2883 7.56475L12.6319 5.56871L14.353 4.33306H12.2236L11.5671 2.3291Z" fill="#FFCC00"/>
<path d="M5.13941 8.68945L4.48296 10.6934H2.35352L4.07469 11.9291L3.41824 13.933L5.13941 12.6895L6.86058 13.933L6.20413 11.9291L7.9173 10.6934H5.79586L5.13941 8.68945Z" fill="#FFCC00"/>
<path d="M5.79586 28.0713L5.13941 26.0674L4.48296 28.0713H2.35352L4.07469 29.307L3.41824 31.3109L5.13941 30.0674L6.86058 31.3109L6.20413 29.307L7.9173 28.0713H5.79586Z" fill="#FFCC00"/>
<path d="M12.2236 34.4317L11.5671 32.4277L10.9107 34.4317H8.78125L10.5024 35.6673L9.84597 37.6713L11.5671 36.4277L13.2883 37.6713L12.6319 35.6673L14.353 34.4317H12.2236Z" fill="#FFCC00"/>
<path d="M40.6987 19.3819H38.5693L37.9128 17.3779L37.2564 19.3819H35.127L36.8481 20.6175L36.1917 22.6215L37.9128 21.3779L39.634 22.6215L38.9776 20.6175L40.6987 19.3819Z" fill="#FFCC00"/>
<path d="M29.1316 2.3291L28.4752 4.33306H26.3457L28.0669 5.56871L27.4104 7.56475L29.1316 6.3291L30.8528 7.56475L30.1963 5.56871L31.9175 4.33306H29.788L29.1316 2.3291Z" fill="#FFCC00"/>
<path d="M34.4946 11.9291L33.8382 13.933L35.5593 12.6895L37.2805 13.933L36.6241 11.9291L38.3452 10.6934H36.2158L35.5593 8.68945L34.9029 10.6934H32.7734L34.4946 11.9291Z" fill="#FFCC00"/>
<path d="M36.2158 28.0713L35.5593 26.0674L34.9029 28.0713H32.7734L34.4946 29.307L33.8382 31.3109L35.5593 30.0674L37.2805 31.3109L36.6241 29.307L38.3452 28.0713H36.2158Z" fill="#FFCC00"/>
<path d="M29.788 34.4317L29.1316 32.4277L28.4752 34.4317H26.3457L28.0669 35.6673L27.4104 37.6713L29.1316 36.4277L30.8528 37.6713L30.1963 35.6673L31.9175 34.4317H29.788Z" fill="#FFCC00"/>
<path d="M24.1765 23.8887C25.0571 28.166 27.3226 31.1838 30.9571 32.9184C32.6542 33.7264 34.6236 34.1541 36.8651 34.2095C38.8745 34.2571 40.9158 34.059 43.0053 33.6234C43.2614 33.568 43.5096 33.7184 43.5656 33.964C43.5736 34.0036 43.5817 34.0432 43.5736 34.0907L43.2454 38.5818C43.2294 38.764 43.0933 38.9145 42.9012 38.9541C39.651 39.5957 36.4168 39.7383 33.2146 39.3739C29.6122 38.962 26.6021 37.9719 24.1925 36.3957C20.59 34.0432 18.1644 30.5105 16.9155 25.8056C16.3471 23.6828 16.115 22.0115 16.195 20.7996C16.5473 15.7303 18.4286 11.2234 21.8229 7.30261C22.8956 6.05904 24.0804 5.02142 25.3693 4.18182C26.9864 3.12835 28.3553 2.36796 29.4761 1.90063C30.4847 1.48875 31.5495 1.25904 32.6622 1.19568C33.0945 1.17192 34.1673 1.16399 35.8884 1.17192C37.7377 1.17984 39.5549 1.45706 41.3321 2.01152C41.5243 2.07489 41.6523 2.24122 41.6283 2.40756L40.9559 6.70855C40.9238 6.88281 40.7717 7.01746 40.5716 7.04122C39.9792 7.10459 39.0906 7.08875 37.8978 7.00162C29.7643 6.37588 25.0651 9.92439 23.8002 17.6472C23.7682 17.8214 23.8883 17.9798 24.0644 18.0115C24.0804 18.0115 24.1044 18.0115 24.1204 18.0115L31.5335 17.964C31.8377 17.964 32.0858 18.2095 32.0858 18.5184V22.9224C32.0858 23.263 31.8056 23.5323 31.4614 23.5402L24.4166 23.564C24.2805 23.564 24.1685 23.6828 24.1685 23.8254C24.1685 23.8412 24.1685 23.8571 24.1685 23.8729L24.1765 23.8887Z" fill="white"/>
<path d="M69.6002 33.2593C71.6416 33.1484 73.6669 32.8157 75.6603 32.2692C75.8444 32.2137 76.0366 32.3167 76.0846 32.4909C76.1006 32.5306 76.1006 32.5781 76.1006 32.6177L75.6683 37.9088C75.6363 38.3127 75.3321 38.6533 74.9158 38.7405C70.2886 39.7464 65.8696 39.8414 61.6588 39.0098C59.3532 38.5583 57.3599 37.79 55.6867 36.7048C53.8215 35.4929 52.2684 33.988 51.0115 32.182C49.6666 30.2494 48.8501 27.786 48.5699 24.7999C48.3057 22.0355 48.3457 19.3979 48.674 16.8791C49.3304 11.881 51.4759 7.93649 55.1183 5.0454C57.616 3.06521 60.6341 1.85333 64.1645 1.40976C67.4707 0.989959 70.809 1.20382 74.1953 2.05135C74.4195 2.10679 74.5635 2.33649 74.5235 2.58204L73.707 7.77808C73.6349 8.21372 73.2427 8.51471 72.8264 8.45927C72.7944 8.45927 72.7623 8.44342 72.7303 8.4355C70.3767 7.73847 68.0551 7.47709 65.7656 7.65927C63.42 7.84144 61.4987 8.52263 60.0017 9.71867C58.3445 11.0335 57.1677 12.8236 56.4793 15.0969C55.6307 17.8929 55.4786 20.6177 56.0149 23.2711C56.9676 27.9682 59.4893 31.0494 63.5801 32.5226C65.3013 33.1405 67.3026 33.386 69.6002 33.2593Z" fill="white"/>
<path d="M101.989 20.8867C103.197 21.4333 104.286 22.2333 105.247 23.2867C105.911 24.0075 106.616 25.1164 107.376 26.6135C109.266 30.3521 110.979 34.2808 112.508 38.3917C112.572 38.5739 112.476 38.7719 112.3 38.8352C112.26 38.8511 112.22 38.859 112.172 38.859H104.791C104.382 38.859 104.014 38.5976 103.886 38.2095C102.901 35.16 101.756 32.1976 100.444 29.3224C99.499 27.2551 98.3942 25.8372 97.1294 25.0689C95.168 23.8729 92.9025 23.5719 90.3327 24.1659C90.1006 24.2135 89.9405 24.4194 89.9485 24.657L90.1326 38.3125C90.1326 38.5422 89.9645 38.7323 89.7483 38.7402C89.7483 38.7402 89.7483 38.7402 89.7403 38.7402L82.8156 38.8273C82.4954 38.8273 82.2392 38.5739 82.2312 38.2412C82.2312 38.2333 82.2312 38.2253 82.2312 38.2174C82.6395 26.1065 82.6075 14.162 82.1512 2.39168C82.1352 2.09069 82.3673 1.84515 82.6715 1.82931C82.6715 1.82931 82.6795 1.82931 82.6875 1.82931C87.3627 1.75802 92.0379 1.70258 96.7051 1.66297C99.555 1.63921 102.141 2.10654 104.462 3.06495C105.927 3.67485 107.08 4.60951 107.921 5.88475C108.641 6.98574 109.041 8.3402 109.122 9.95604C109.346 14.7481 106.976 18.1541 102.005 20.1739C101.444 20.4036 101.436 20.6412 101.989 20.8867ZM99.3709 8.11842C96.3848 6.85901 93.3108 6.5897 90.1406 7.32634C89.9084 7.38178 89.7563 7.58772 89.7563 7.82535L89.9164 18.0986C89.9245 18.5976 90.3407 18.9937 90.8451 18.9857C90.8531 18.9857 90.8611 18.9857 90.8691 18.9857C92.0299 18.9303 93.2787 18.859 94.5996 18.756C96.1927 18.6372 97.4015 18.4075 98.2261 18.0511C101.004 16.8551 102.157 14.5422 101.676 11.1125C101.476 9.68673 100.708 8.68871 99.3709 8.11842Z" fill="white"/>
<path d="M140.639 28.2142L128.382 28.1746C127.966 28.1746 127.598 28.436 127.494 28.8162L124.98 38.3528C124.9 38.6538 124.644 38.8598 124.364 38.8598L116.895 38.8202C116.582 38.8202 116.326 38.5667 116.326 38.2499C116.326 38.1786 116.342 38.1073 116.366 38.0439L129.847 2.24988C129.927 2.0281 130.144 1.8776 130.376 1.86968L140.142 1.83008C140.463 1.83008 140.751 2.04394 140.839 2.36077C142.408 7.82612 144.201 13.2835 146.218 18.733C148.564 25.0855 150.814 31.5568 152.967 38.1469C153.063 38.4241 152.919 38.7172 152.655 38.8123C152.599 38.8281 152.543 38.8439 152.479 38.836L144.289 38.733C144.057 38.733 143.857 38.5588 143.793 38.3212L141.335 28.7528C141.255 28.436 140.967 28.2142 140.639 28.2142ZM129.319 22.1865C129.255 22.3925 129.351 22.6063 129.543 22.6776C129.575 22.6934 129.615 22.6934 129.655 22.6934L138.869 22.8043C139.206 22.8043 139.478 22.535 139.478 22.1786C139.478 22.0994 139.462 22.0281 139.438 21.9568C137.637 17.1964 136.084 12.3251 134.779 7.32711C134.739 7.16077 134.651 7.0578 134.515 7.0182C134.354 6.97067 134.162 7.12117 134.09 7.35087L129.319 22.1865Z" fill="white"/>
</g>
<defs>
<clipPath id="clip0_6151_23506">
<rect width="153" height="40" fill="white"/>
</clipPath>
</defs>
</svg>
